<svg id="visual" viewBox="0 0 1200 1200" width="1200" height="1200" xmlns="http://www.w3.org/2000/svg" xmlns:xlink="http://www.w3.org/1999/xlink" version="1.1"><rect x="0" y="0" width="1200" height="1200" fill="#001220"></rect><defs><linearGradient id="grad1_0" x1="0%" y1="0%" x2="100%" y2="100%"><stop offset="30%" stop-color="#001220" stop-opacity="1"></stop><stop offset="70%" stop-color="#001220" stop-opacity="1"></stop></linearGradient></defs><defs><linearGradient id="grad2_0" x1="0%" y1="0%" x2="100%" y2="100%"><stop offset="30%" stop-color="#001220" stop-opacity="1"></stop><stop offset="70%" stop-color="#001220" stop-opacity="1"></stop></linearGradient></defs><g transform="translate(1200, 0)"><path d="M0 509.1C-23.7 432.9 -47.4 356.7 -96.3 359.3C-145.2 362 -219.3 443.4 -254.6 440.9C-289.8 438.4 -286.3 351.9 -301.9 301.9C-317.6 252 -352.4 238.5 -365.5 211C-378.5 183.5 -369.9 142.1 -390.2 104.6C-410.6 67.1 -459.8 33.5 -509.1 0L0 0Z" fill="#FBAE3C"></path></g><g transform="translate(0, 1200)"><path d="M0 -509.1C45.6 -498.6 91.1 -488.1 123.2 -459.8C155.3 -431.4 173.9 -385.3 214.5 -371.5C255.1 -357.8 317.5 -376.4 360 -360C402.5 -343.6 424.9 -292 420 -242.5C415.1 -193 382.8 -145.4 393.1 -105.3C403.4 -65.3 456.3 -32.6 509.1 0L0 0Z" fill="#FBAE3C"></path></g></svg>